<?xml version="1.0" encoding="utf-8"?>
<!-- Generator: Adobe Illustrator 27.5.0, SVG Export Plug-In . SVG Version: 6.00 Build 0)  -->
<svg version="1.1" xmlns="http://www.w3.org/2000/svg" xmlns:xlink="http://www.w3.org/1999/xlink" x="0px" y="0px"
	 viewBox="0 0 500 500" style="enable-background:new 0 0 500 500;" xml:space="preserve">
<g id="BACKGROUND">
	<g>
		<rect style="fill:#F9F9F9;" width="500" height="500"/>
	</g>
</g>
<g id="OBJECTS">
	<g style="opacity:0.5;">
		<path style="opacity:0.09;fill:#332F2E;" d="M456.713,398.253c0,3.542-78.317,6.414-199.614,6.414s-219.626-2.871-219.626-6.414
			c0-3.542,98.33-6.414,219.626-6.414S456.713,394.71,456.713,398.253z"/>
	</g>
	<g>
		<g>
			<path style="fill:#C2C3C8;" d="M291.186,130.982c-2.097,0-4.05-1.34-4.726-3.44c-0.837-2.604,0.6-5.404,3.202-6.241l24.521-7.89
				c2.966-0.955,6.158,0.683,7.112,3.649c0.955,2.967-0.683,6.158-3.649,7.112l-15.241,4.904c-0.353,0.117-0.732-0.08-0.847-0.435
				c-0.114-0.354,0.08-0.733,0.435-0.847l15.241-4.904c2.26-0.728,3.507-3.158,2.78-5.418c-0.351-1.09-1.109-1.98-2.137-2.507
				c-1.026-0.527-2.191-0.624-3.282-0.273l-24.521,7.89c-1.896,0.61-2.942,2.65-2.333,4.547c0.611,1.896,2.654,2.941,4.548,2.333
				l18.05-5.807c1.533-0.494,2.379-2.143,1.886-3.676c-0.494-1.533-2.139-2.376-3.676-1.886l-11.234,3.615
				c-0.353,0.115-0.732-0.08-0.847-0.435c-0.114-0.354,0.08-0.733,0.435-0.847l11.234-3.615c2.24-0.724,4.649,0.516,5.369,2.755
				c0.721,2.24-0.515,4.649-2.755,5.37l-18.05,5.807C292.199,130.906,291.688,130.982,291.186,130.982z"/>
		</g>
		<g>
			<g>
				<path style="fill:#70A63B;" d="M132.358,358.034c0,0-8.893-10.685-12.746-15.875c-9.39-12.648-18.829-25.899-22.254-41.275
					c11.921,8.175,23.019,18.514,28.392,31.934C128.977,340.878,132.358,358.034,132.358,358.034z"/>
			</g>
			<g>
				<g>
					<path style="fill:#70A63B;" d="M171.751,384.489c-18.836-4.612-32.762-18.2-43.743-33.51c-0.465-0.648-1.549-0.025-1.079,0.631
						c11.171,15.575,25.339,29.395,44.49,34.085C172.2,385.885,172.533,384.68,171.751,384.489L171.751,384.489z"/>
				</g>
			</g>
			<g>
				<path style="fill:#70A63B;" d="M135.662,361.901c-2.551-4.245-7.598-7.336-12.304-8.878c-4.706-1.542-9.663-2.14-14.473-3.318
					c-5.757-1.409-11.299-3.311-16.415-6.303C101.241,357.598,119.335,365.348,135.662,361.901z"/>
			</g>
			<g>
				<path style="fill:#70A63B;" d="M158.541,380.362c0,0-11.669-0.832-17.889-2.192c-4.687-1.025-9.358-2.266-13.714-4.277
					c-4.356-2.012-8.409-4.833-11.358-8.618c6.059,1.958,12.632,1.589,18.829,3.054
					C142.212,370.174,158.541,380.362,158.541,380.362z"/>
			</g>
			<g>
				<path style="fill:#70A63B;" d="M162.142,382.249c0,0-4.241-10.903-7.377-16.444c-2.363-4.176-4.928-8.271-8.136-11.839
					c-3.208-3.568-7.101-6.607-11.588-8.307c3.66,5.211,5.249,11.599,8.478,17.087C147.586,369.657,162.142,382.249,162.142,382.249
					z"/>
			</g>
		</g>
		<g>
			<path style="fill:#70A63B;" d="M187.629,223.519c1.473-7.575-1.145-16.418-4.986-23.112c-3.84-6.694-8.956-12.557-13.297-18.938
				c-5.195-7.636-9.629-15.619-12.431-24.419C152.262,182.634,165.129,210.481,187.629,223.519z"/>
		</g>
		<g>
			<g>
				<path style="fill:#70A63B;" d="M334.769,162.329c0,0,4.691-21.15,6.324-31.09c3.978-24.224,7.594-49.318,1.361-73.062
					c-10.678,19.834-18.67,42.079-16.533,64.504C327.204,136.15,334.769,162.329,334.769,162.329z"/>
			</g>
			<g>
				<g>
					<path style="fill:#70A63B;" d="M302.945,240.127c1.436-8.753,4.008-16.988,9.408-24.124c4.131-5.46,8.806-10.311,12.03-16.425
						c4.572-8.669,6.72-18.371,8.278-27.974c1.529-9.424,2.929-18.98,3.395-28.523c0.039-0.804-1.211-0.802-1.25,0
						c-0.489,10.02-1.968,20.061-3.64,29.944c-1.676,9.909-4.134,19.961-9.396,28.635c-3.299,5.437-7.825,9.897-11.487,15.061
						c-4.878,6.878-7.189,14.829-8.542,23.074C301.61,240.582,302.814,240.92,302.945,240.127L302.945,240.127z"/>
				</g>
			</g>
			<g>
				<path style="fill:#70A63B;" d="M333.648,163.891c-0.24-7.714,3.762-16.022,8.625-22.014c4.863-5.992,10.853-10.959,16.16-16.562
					c6.352-6.705,12.007-13.874,16.184-22.112C375.11,129.203,357.946,154.628,333.648,163.891z"/>
			</g>
			<g>
				<path style="fill:#70A63B;" d="M319.259,207.387c0,0,14.584-10.938,21.585-17.97c5.275-5.299,10.346-10.866,14.355-17.178
					c4.009-6.312,6.937-13.429,7.606-20.877c-6.286,7.679-15.206,12.743-22.088,19.893
					C332.051,180.258,319.259,207.387,319.259,207.387z"/>
			</g>
			<g>
				<path style="fill:#70A63B;" d="M321.779,203.715c0,0,5.274-18.108,5.505-28.027c0.174-7.475-3.499-21.931-15.257-36.149
					c0.734,9.896,0.478,13.281,0.415,23.204C312.362,175.238,321.779,203.715,321.779,203.715z"/>
			</g>
		</g>
		<g>
			<path style="fill:#A1BC31;" d="M206.408,158.332c0,0-7.901-10.786-11.291-15.997c-8.262-12.699-16.535-25.981-18.907-40.944
				c10.958,8.556,20.996,19.141,25.355,32.342C204.183,141.662,206.408,158.332,206.408,158.332z"/>
		</g>
		<g>
			<path style="fill:#70A63B;" d="M340.419,333.582c1.262-7.613,6.802-14.987,12.736-19.92c5.934-4.933,12.775-8.643,19.069-13.108
				c7.533-5.344,14.473-11.277,20.17-18.548C387.829,307.607,366.054,329.214,340.419,333.582z"/>
		</g>
		<g>
			<path style="fill:#A1BC31;" d="M320.442,395.108c0.97-5.853,5.229-11.521,9.791-15.313c4.562-3.792,9.82-6.644,14.659-10.077
				c5.791-4.108,11.126-8.669,15.505-14.258C356.887,375.14,340.148,391.75,320.442,395.108z"/>
		</g>
		<g>
			<path style="fill:#A1BC31;" d="M172.963,347.618c0,0-5.375-12.242-7.555-18.065c-5.312-14.188-10.509-28.948-9.581-44.069
				c8.842,10.728,16.347,23.238,17.741,37.07C174.405,330.862,172.963,347.618,172.963,347.618z"/>
		</g>
		<g>
			<g>
				<path style="fill:#A1BC31;" d="M376.541,224.886c0,0,13.988-27.61,21.195-40.067c17.561-30.358,36.312-61.349,64.715-81.922
					c-6.184,31.583-17.519,63.394-40.204,86.222C408.622,202.83,376.541,224.886,376.541,224.886z"/>
			</g>
			<g>
				<g>
					<path style="fill:#A1BC31;" d="M339.375,321.022c0.121-43.098,23.092-80.955,50.804-112.296
						c0.531-0.601-0.35-1.488-0.884-0.884c-27.93,31.588-51.048,69.753-51.17,113.18
						C338.122,321.826,339.372,321.827,339.375,321.022L339.375,321.022z"/>
				</g>
			</g>
			<g>
				<path style="fill:#A1BC31;" d="M370.879,231.411c7.914-7.677,12.066-20.181,13.031-31.164
					c0.965-10.983-0.243-22.034-0.121-33.059c0.146-13.195,1.468-26.173,5.371-38.778
					C362.811,154.601,355.152,197.752,370.879,231.411z"/>
			</g>
			<g>
				<path style="fill:#A1BC31;" d="M342.411,290.349c0,0-4.093-25.722-4.288-39.896c-0.147-10.681,0.184-21.435,2.344-31.897
					c2.16-10.462,6.23-20.676,12.946-28.984c-1.183,14.128,2.938,28.193,2.893,42.37
					C356.25,249.794,342.411,290.349,342.411,290.349z"/>
			</g>
			<g>
				<path style="fill:#A1BC31;" d="M330.572,274.766c0,0,25.231-6.463,38.315-11.916c9.86-4.109,19.598-8.685,28.34-14.824
					s16.499-13.932,21.454-23.396c-12.495,6.699-27.039,8.505-40.032,14.179C362.29,245.953,330.572,274.766,330.572,274.766z"/>
			</g>
		</g>
		<g>
			<g>
				<path style="fill:#A1BC31;" d="M128.336,280.947c0,0-8.709-19.836-12.241-29.27c-8.607-22.99-17.028-46.904-15.525-71.406
					c14.327,17.383,26.487,37.652,28.745,60.065C130.672,253.797,128.336,280.947,128.336,280.947z"/>
			</g>
			<g>
				<g>
					<path style="fill:#A1BC31;" d="M176.807,353.294c-2.93-7.82-6.746-15.159-12.571-21.217
						c-4.912-5.108-10.711-9.248-15.389-14.601c-7.153-8.185-11.72-18.186-15.478-28.287c-3.311-8.897-6.519-17.943-8.815-27.162
						c-0.194-0.78-1.4-0.45-1.205,0.332c2.297,9.219,5.505,18.265,8.815,27.162c3.419,9.188,7.461,18.263,13.508,26.052
						c4.364,5.62,9.819,9.959,14.995,14.768c7.017,6.52,11.587,14.346,14.936,23.284
						C175.881,354.372,177.09,354.049,176.807,353.294L176.807,353.294z"/>
				</g>
			</g>
			<g>
				<path style="fill:#A1BC31;" d="M129.739,282.262c-1.262-7.613-6.802-14.987-12.736-19.92
					c-5.934-4.933-12.774-8.643-19.069-13.108c-7.533-5.344-14.473-11.278-20.17-18.548
					C82.33,256.286,104.105,277.893,129.739,282.262z"/>
			</g>
			<g>
				<path style="fill:#A1BC31;" d="M152.302,322.134c0,0-16.431-7.898-24.663-13.436c-6.204-4.173-12.259-8.65-17.418-14.063
					c-5.158-5.413-9.413-11.827-11.515-19.002c7.657,6.312,17.392,9.548,25.531,15.225
					C134.485,298.006,152.302,322.134,152.302,322.134z"/>
			</g>
			<g>
				<path style="fill:#A1BC31;" d="M149.117,319.022c0,0-8.69-16.739-10.843-26.424c-1.622-7.299-0.827-22.193,7.946-38.423
					c1.202,9.851,2.111,13.121,4.1,22.843C152.824,289.259,149.117,319.022,149.117,319.022z"/>
			</g>
		</g>
		<g>
			<g>
				<path style="fill:#332F2E;" d="M331.86,237.973h-4.617v-38.086h4.617c0,0,7.617,14.332,7.617,19.093
					C339.477,223.741,331.86,237.973,331.86,237.973z"/>
			</g>
			<g>
				<path style="fill:#9BCBEE;" d="M331.289,241.473c-0.913,0-1.826-0.355-2.513-1.063c-1.346-1.388-1.312-3.604,0.076-4.949
					c9.275-8.996,9.502-23.861,0.505-33.137c-1.346-1.388-1.312-3.604,0.076-4.949c1.387-1.345,3.603-1.313,4.949,0.076
					c11.684,12.046,11.389,31.352-0.657,43.035C333.046,241.145,332.167,241.473,331.289,241.473z"/>
			</g>
			<g>
				<rect x="162.781" y="199.887" style="fill:#F1E3B4;" width="166.912" height="38.186"/>
			</g>
			<g>
				<path style="fill:#9BCBEE;" d="M331.871,203.351H157.082c-1.913,0-3.463-1.551-3.463-3.464s1.551-3.464,3.463-3.464h174.788
					c1.913,0,3.464,1.551,3.464,3.464S333.784,203.351,331.871,203.351z"/>
			</g>
			<g>
				<path style="fill:#9BCBEE;" d="M331.289,241.538H157.082c-1.913,0-3.463-1.551-3.463-3.464s1.551-3.464,3.463-3.464h174.207
					c1.913,0,3.464,1.551,3.464,3.464S333.203,241.538,331.289,241.538z"/>
			</g>
			<g>
				<path style="fill:#D9A957;" d="M302.342,209.396H167.978c-0.276,0-0.5-0.224-0.5-0.5s0.224-0.5,0.5-0.5h134.364
					c0.276,0,0.5,0.224,0.5,0.5S302.619,209.396,302.342,209.396z"/>
			</g>
			<g>
				<path style="fill:#D9A957;" d="M305.035,215.588H170.67c-0.276,0-0.5-0.224-0.5-0.5s0.224-0.5,0.5-0.5h134.364
					c0.276,0,0.5,0.224,0.5,0.5S305.311,215.588,305.035,215.588z"/>
			</g>
			<g>
				<path style="fill:#D9A957;" d="M323.966,222.051H189.603c-0.276,0-0.5-0.224-0.5-0.5s0.224-0.5,0.5-0.5h134.363
					c0.276,0,0.5,0.224,0.5,0.5S324.243,222.051,323.966,222.051z"/>
			</g>
		</g>
		<g>
			<g>
				<path style="fill:#332F2E;" d="M164.699,355.46h4.617v38.086h-4.617c0,0-7.617-14.332-7.617-19.093
					S164.699,355.46,164.699,355.46z"/>
			</g>
			<g>
				<rect x="166.867" y="355.36" style="fill:#F1E3B4;" width="166.912" height="38.186"/>
			</g>
			<g>
				<g>
					<path style="fill:#9BCBEE;" d="M164.689,397.045c-0.913,0-1.826-0.355-2.512-1.063c-11.684-12.046-11.389-31.352,0.656-43.035
						c1.387-1.345,3.602-1.313,4.95,0.076c1.346,1.387,1.312,3.603-0.076,4.949c-9.274,8.996-9.501,23.861-0.505,33.137
						c1.346,1.388,1.312,3.604-0.076,4.949C166.446,396.717,165.567,397.045,164.689,397.045z"/>
				</g>
				<g>
					<path style="fill:#9BCBEE;" d="M339.478,397.009H164.689c-1.913,0-3.463-1.551-3.463-3.464s1.551-3.464,3.463-3.464h174.789
						c1.913,0,3.464,1.551,3.464,3.464S341.391,397.009,339.478,397.009z"/>
				</g>
				<g>
					<path style="fill:#9BCBEE;" d="M339.478,358.824H165.27c-1.913,0-3.463-1.551-3.463-3.464s1.551-3.464,3.463-3.464h174.208
						c1.913,0,3.464,1.551,3.464,3.464S341.391,358.824,339.478,358.824z"/>
				</g>
				<g>
					<path style="fill:#D9A957;" d="M328.581,385.038H194.218c-0.276,0-0.5-0.224-0.5-0.5s0.224-0.5,0.5-0.5h134.363
						c0.276,0,0.5,0.224,0.5,0.5S328.858,385.038,328.581,385.038z"/>
				</g>
				<g>
					<path style="fill:#D9A957;" d="M317.758,373.208H183.394c-0.276,0-0.5-0.224-0.5-0.5s0.224-0.5,0.5-0.5h134.364
						c0.276,0,0.5,0.224,0.5,0.5S318.035,373.208,317.758,373.208z"/>
				</g>
				<g>
					<path style="fill:#D9A957;" d="M306.956,367.382H172.593c-0.276,0-0.5-0.224-0.5-0.5s0.224-0.5,0.5-0.5h134.363
						c0.276,0,0.5,0.224,0.5,0.5S307.233,367.382,306.956,367.382z"/>
				</g>
			</g>
		</g>
		<g>
			<path style="fill:#BE2D86;" d="M355.674,352.027H178.977c-3.037,0-5.5-2.463-5.5-5.5s2.463-5.5,5.5-5.5h176.697
				c3.037,0,5.5,2.463,5.5,5.5S358.711,352.027,355.674,352.027z"/>
		</g>
		<g>
			<g>
				<path style="fill:#332F2E;" d="M370.529,292.586h-5.782v-47.691h5.782c0,0,9.538,17.947,9.538,23.908
					C380.067,274.764,370.529,292.586,370.529,292.586z"/>
			</g>
			<g>
				<path style="fill:#BE2D86;" d="M369.814,296.085c-0.913,0-1.826-0.355-2.513-1.063c-1.346-1.388-1.312-3.604,0.076-4.949
					c5.801-5.626,9.063-13.167,9.187-21.235c0.123-8.067-2.907-15.706-8.534-21.507c-1.346-1.388-1.312-3.604,0.076-4.949
					c1.387-1.345,3.603-1.313,4.949,0.076c6.928,7.143,10.659,16.55,10.508,26.487s-4.169,19.226-11.313,26.153
					C371.571,295.757,370.692,296.085,369.814,296.085z"/>
			</g>
			<g>
				<rect x="158.805" y="244.894" style="fill:#F1E3B4;" width="209.298" height="47.817"/>
			</g>
			<g>
				<path style="fill:#BE2D86;" d="M370.542,248.394H151.67c-1.933,0-3.5-1.567-3.5-3.5s1.567-3.5,3.5-3.5h218.873
					c1.933,0,3.5,1.567,3.5,3.5S372.475,248.394,370.542,248.394z"/>
			</g>
			<g>
				<path style="fill:#BE2D86;" d="M369.814,296.211H151.67c-1.933,0-3.5-1.567-3.5-3.5s1.567-3.5,3.5-3.5h218.144
					c1.933,0,3.5,1.567,3.5,3.5S371.746,296.211,369.814,296.211z"/>
			</g>
			<g>
				<path style="fill:#D9A957;" d="M333.566,256.674H165.314c-0.276,0-0.5-0.224-0.5-0.5s0.224-0.5,0.5-0.5h168.252
					c0.276,0,0.5,0.224,0.5,0.5S333.842,256.674,333.566,256.674z"/>
			</g>
			<g>
				<path style="fill:#D9A957;" d="M342.23,276.503H173.978c-0.276,0-0.5-0.224-0.5-0.5s0.224-0.5,0.5-0.5H342.23
					c0.276,0,0.5,0.224,0.5,0.5S342.506,276.503,342.23,276.503z"/>
			</g>
			<g>
				<path style="fill:#D9A957;" d="M339.81,282.867H171.558c-0.276,0-0.5-0.224-0.5-0.5s0.224-0.5,0.5-0.5H339.81
					c0.276,0,0.5,0.224,0.5,0.5S340.086,282.867,339.81,282.867z"/>
			</g>
		</g>
		<g>
			<g>
				<path style="fill:#332F2E;" d="M348.057,337.594h-4.617v-38.086h4.617c0,0,7.617,14.332,7.617,19.093
					S348.057,337.594,348.057,337.594z"/>
			</g>
			<g>
				<path style="fill:#E8BB37;" d="M347.486,341.094c-0.913,0-1.826-0.355-2.513-1.063c-1.346-1.388-1.312-3.604,0.076-4.949
					c9.274-8.996,9.502-23.861,0.506-33.137c-1.346-1.388-1.312-3.604,0.076-4.949c1.387-1.346,3.603-1.313,4.949,0.076
					c11.683,12.046,11.388,31.352-0.658,43.035C349.243,340.766,348.364,341.094,347.486,341.094z"/>
			</g>
			<g>
				<rect x="178.977" y="299.508" style="fill:#F1E3B4;" width="166.912" height="38.186"/>
			</g>
			<g>
				<path style="fill:#E8BB37;" d="M348.068,303.008H173.279c-1.933,0-3.5-1.567-3.5-3.5s1.567-3.5,3.5-3.5h174.789
					c1.933,0,3.5,1.567,3.5,3.5S350,303.008,348.068,303.008z"/>
			</g>
			<g>
				<path style="fill:#E8BB37;" d="M347.486,341.194H173.279c-1.933,0-3.5-1.567-3.5-3.5s1.567-3.5,3.5-3.5h174.207
					c1.933,0,3.5,1.567,3.5,3.5S349.418,341.194,347.486,341.194z"/>
			</g>
			<g>
				<path style="fill:#D9A957;" d="M318.538,309.016H184.175c-0.276,0-0.5-0.224-0.5-0.5s0.224-0.5,0.5-0.5h134.363
					c0.276,0,0.5,0.224,0.5,0.5S318.815,309.016,318.538,309.016z"/>
			</g>
			<g>
				<path style="fill:#D9A957;" d="M321.231,315.209H186.868c-0.276,0-0.5-0.224-0.5-0.5s0.224-0.5,0.5-0.5h134.363
					c0.276,0,0.5,0.224,0.5,0.5S321.507,315.209,321.231,315.209z"/>
			</g>
			<g>
				<path style="fill:#D9A957;" d="M340.163,321.671H205.799c-0.276,0-0.5-0.224-0.5-0.5s0.224-0.5,0.5-0.5h134.364
					c0.276,0,0.5,0.224,0.5,0.5S340.44,321.671,340.163,321.671z"/>
			</g>
			<g>
				<g>
					<path style="fill:#70A63B;" d="M248.301,322.698l-7.801-10l-7.801,10v-26.467c0-0.093,0.065-0.17,0.157-0.182
						c0.676-0.089,3.491-0.422,7.644-0.422c4.556,0,7.038,0.326,7.65,0.419c0.09,0.014,0.151,0.09,0.151,0.182V322.698z"/>
				</g>
			</g>
		</g>
		<g>
			<g>
				<polygon style="fill:#BB9D6C;" points="145.125,225.095 137.183,249.012 148.752,250.049 				"/>
			</g>
			<g>
				<polygon style="fill:#211915;" points="145.125,225.095 143.094,231.213 146.053,231.473 				"/>
			</g>
			<g>
				<path style="fill:#9BCBEE;" d="M148.732,250.266c0.095-1.065-0.69-2.005-1.755-2.101c-1.065-0.095-2.005,0.69-2.101,1.755
					c0.095-1.065-0.69-2.005-1.755-2.101c-1.065-0.095-2.005,0.69-2.101,1.755c0.095-1.065-0.69-2.005-1.755-2.101
					c-1.065-0.095-2.005,0.69-2.101,1.755l-12.228,139.206l-0.022-0.002l-0.459,5.116c-0.174,1.944,1.26,3.66,3.204,3.835
					l4.53,0.406c1.944,0.174,3.66-1.26,3.835-3.204l0.169-1.89l0.023,0.002L148.732,250.266z"/>
			</g>
			<g>
				<path style="fill:#7BBBE8;" d="M148.732,250.266c0.095-1.065-0.69-2.005-1.755-2.101c-1.065-0.095-2.005,0.69-2.101,1.755
					c0.09-1.001-11.909,132.071-13.26,147.817l0.573,0.052c1.944,0.174,3.66-1.26,3.835-3.204l0.169-1.89l0.023,0.002
					L148.732,250.266z"/>
			</g>
			<g>
				<path style="fill:#332F2E;" d="M127.14,363.448l-2.133,24.993l-0.459,5.116c-0.174,1.944,1.26,3.66,3.204,3.835l4.53,0.406
					c1.944,0.174,3.66-1.26,3.835-3.204l0.169-1.89l2.411-28.279L127.14,363.448z"/>
			</g>
			<g>
				<polygon style="fill:#ECEDEF;" points="127.127,363.447 126.841,366.569 138.422,367.547 138.709,364.425 				"/>
			</g>
			<g>
				<polygon style="fill:#332F2E;" points="135.494,344.32 133.921,344.164 132.943,355.746 134.516,355.902 				"/>
			</g>
			<g>
				<polygon style="fill:#ECEDEF;" points="133.205,371.426 131.632,371.282 131.143,377.073 132.716,377.217 				"/>
			</g>
		</g>
		<g>
			<path style="fill:#A1BC31;" d="M171.303,339.487c-5.638,2.629-13.064,2.304-19.048,0.605c-5.984-1.699-11.567-4.558-17.403-6.71
				c-6.985-2.575-14.092-4.487-21.522-4.964C132.433,319.793,156.72,324.43,171.303,339.487z"/>
		</g>
		<g>
			<path style="fill:#C2C3C8;" d="M136.893,226.538c-0.705,0-1.409-0.152-2.072-0.456c-1.208-0.554-2.126-1.54-2.585-2.777
				l-8.974-24.146c-1.086-2.922,0.408-6.182,3.33-7.268c1.41-0.526,2.944-0.466,4.32,0.165c1.376,0.63,2.423,1.754,2.947,3.164
				l5.578,15.008c0.13,0.349-0.048,0.736-0.396,0.865c-0.348,0.131-0.736-0.048-0.865-0.396l-5.578-15.008
				c-0.399-1.073-1.196-1.929-2.246-2.409c-1.048-0.479-2.217-0.524-3.291-0.127c-2.226,0.827-3.364,3.312-2.537,5.537l8.974,24.146
				c0.694,1.867,2.778,2.82,4.646,2.129c1.868-0.694,2.823-2.779,2.129-4.647l-6.605-17.772c-0.561-1.51-2.247-2.282-3.756-1.722
				c-1.51,0.562-2.282,2.247-1.721,3.757l4.111,11.063c0.13,0.349-0.048,0.736-0.396,0.865c-0.347,0.131-0.736-0.048-0.865-0.396
				l-4.111-11.063c-0.82-2.205,0.308-4.667,2.513-5.487c2.206-0.822,4.668,0.309,5.487,2.515l6.605,17.772
				c0.953,2.564-0.358,5.426-2.922,6.378C138.055,226.434,137.474,226.538,136.893,226.538z"/>
		</g>
		<g>
			<path style="fill:#C2C3C8;" d="M375.598,368.037c-1.103,0-2.183-0.325-3.126-0.953c-1.26-0.839-2.117-2.113-2.413-3.588
				l-3.149-15.698c-0.073-0.365,0.163-0.72,0.527-0.793c0.363-0.074,0.719,0.163,0.793,0.527l3.149,15.698
				c0.226,1.122,0.878,2.093,1.839,2.732c0.96,0.639,2.108,0.866,3.229,0.643c2.328-0.467,3.843-2.741,3.376-5.069l-5.067-25.256
				c-0.393-1.954-2.311-3.225-4.254-2.832c-1.954,0.392-3.224,2.301-2.832,4.254l3.729,18.59c0.152,0.762,0.596,1.42,1.247,1.854
				c0.652,0.433,1.431,0.591,2.191,0.436c0.762-0.152,1.42-0.596,1.854-1.247c0.435-0.652,0.589-1.431,0.437-2.191l-2.321-11.57
				c-0.073-0.365,0.163-0.72,0.527-0.793c0.361-0.074,0.719,0.163,0.793,0.527l2.321,11.57c0.224,1.114-0.003,2.252-0.636,3.203
				c-0.634,0.951-1.596,1.598-2.709,1.821c-1.115,0.226-2.251-0.002-3.203-0.636c-0.951-0.633-1.598-1.596-1.821-2.709l-3.729-18.59
				c-0.538-2.683,1.206-5.302,3.887-5.84c1.294-0.259,2.616,0.002,3.722,0.738c1.106,0.736,1.858,1.854,2.118,3.148l5.067,25.257
				c0.612,3.056-1.375,6.041-4.431,6.654C376.342,368,375.968,368.037,375.598,368.037z"/>
		</g>
		<g>
			<g>
				<g>
					<polygon style="fill:#273A53;" points="338.211,146.578 311.215,151.987 197.112,158.928 164.408,146.447 254.384,116.941 
											"/>
				</g>
			</g>
			<g>
				<path style="fill:#E8BB37;" d="M338.887,142.148l-83.149-27.314c-0.05-0.026-0.103-0.039-0.154-0.061
					c-0.078-0.034-0.155-0.069-0.237-0.094c-0.071-0.022-0.142-0.035-0.214-0.05c-0.078-0.016-0.154-0.034-0.234-0.042
					c-0.078-0.008-0.155-0.007-0.232-0.008c-0.074,0-0.148-0.003-0.223,0.004c-0.088,0.008-0.174,0.027-0.26,0.044
					c-0.051,0.011-0.102,0.012-0.154,0.026l-90.245,27.184c-1.25,0.344-1.984,1.636-1.64,2.886c0.286,1.041,1.231,1.725,2.262,1.725
					c0.206,0,0.416-0.027,0.624-0.085l89.356-26.939l82.332,26.889c0.347,0.18,0.717,0.266,1.082,0.266
					c0.848,0,1.665-0.46,2.084-1.264C340.484,144.164,340.036,142.747,338.887,142.148z"/>
			</g>
			<g>
				<polygon style="fill:#E2A91F;" points="240.977,124.217 240.977,119.308 237.456,120.564 237.456,125.475 				"/>
			</g>
			<g>
				<g>
					<path style="fill:#39567D;" d="M311.215,195.201c0,0-34.152,3.686-56.831,3.686c-26.684,0-57.272-3.686-57.272-3.686v-48.365
						c0,0,25.598-9.416,57.272-9.416c29.947,0,56.831,9.416,56.831,9.416V195.201z"/>
				</g>
			</g>
			<g>
				<g>
					<path style="fill:#273A53;" d="M223.907,197.677c-16.554-1.091-26.795-2.476-26.795-2.476v-48.365
						c0,0,10.976-4.895,27.447-8.274L223.907,197.677z"/>
				</g>
			</g>
			<g>
				<g>
					<g>
						<path style="fill:#E2A91F;" d="M254.487,199.711c-36.999,0-52.956-2.609-57.375-3.513l0-4.16
							c2.215,0.501,17.568,3.61,57.375,3.61c20.755,0,51.442-3.1,56.728-3.65v4.085
							C304.835,196.741,274.935,199.711,254.487,199.711z"/>
					</g>
				</g>
			</g>
			<g>
				<g>
					<g>
						<path style="fill:#E8BB37;" d="M254.384,200.887c-43.119,0-57.206-3.6-57.784-3.753c-1.068-0.283-1.704-1.378-1.422-2.445
							s1.378-1.703,2.445-1.422c0.136,0.035,14.347,3.62,56.761,3.62c22.31,0,56.276-3.639,56.616-3.675
							c1.093-0.116,2.085,0.675,2.203,1.773c0.119,1.099-0.676,2.085-1.773,2.203C311.087,197.226,276.91,200.887,254.384,200.887z"
							/>
					</g>
				</g>
			</g>
			<g>
				<path style="fill:#E8BB37;" d="M240.409,142.601c-0.35-1.028-0.748-2.194-0.748-2.823c0-0.003-0.001-0.005-0.001-0.008v-19.807
					c0-0.972-0.788-1.761-1.761-1.761c-0.972,0-1.76,0.788-1.76,1.761v19.815c0,0.028,0.007,0.054,0.008,0.082
					c-0.021,0.721-0.333,2.253-0.611,3.617c-0.335,1.64-0.651,3.188-0.651,4.052c0,0.486,0.394,0.88,0.88,0.88
					c0.486,0,0.88-0.394,0.88-0.88c0-0.643,0.288-2.092,0.561-3.435c0,0.01,0.001,0.019,0.001,0.029
					c0.091,1.72,0.186,3.498,0.186,4.249c0,0.486,0.394,0.88,0.88,0.88c0.486,0,0.88-0.394,0.88-0.88
					c0-0.797-0.092-2.52-0.189-4.342c-0.004-0.08-0.008-0.16-0.013-0.24c0.282,0.848,0.54,1.697,0.54,2.202
					c0,0.486,0.394,0.88,0.88,0.88c0.486,0,0.88-0.394,0.88-0.88C241.252,145.072,240.843,143.872,240.409,142.601z"/>
			</g>
			<g>
				<path style="fill:#273A53;" d="M254.163,176.412c-0.276,0-0.5-0.224-0.5-0.5v-15.195c0-0.276,0.224-0.5,0.5-0.5
					s0.5,0.224,0.5,0.5v15.195C254.663,176.188,254.44,176.412,254.163,176.412z"/>
			</g>
		</g>
		<g>
			<g>
				<path style="fill:#E8BB37;" d="M127.468,157.864c-10.866,0-22.562-2.035-22.562-6.502c0-4.467,11.696-6.501,22.562-6.501
					s22.562,2.035,22.562,6.501C150.03,155.83,138.334,157.864,127.468,157.864z M127.468,147.152
					c-13.116,0-20.271,2.781-20.271,4.21s7.155,4.211,20.271,4.211s20.271-2.782,20.271-4.211S140.584,147.152,127.468,147.152z"/>
			</g>
			<g>
				<path style="fill:#E8BB37;" d="M137.409,171.251c-1.675,0-3.844-1.367-6.472-4.084c-2.962-3.063-6.193-7.521-9.099-12.554
					c-5.433-9.411-9.519-20.556-5.65-22.79c1.788-1.034,4.417,0.224,7.812,3.734c2.962,3.063,6.193,7.521,9.099,12.554
					c5.434,9.411,9.519,20.556,5.651,22.79C138.345,171.135,137.898,171.251,137.409,171.251z M117.538,133.766
					c-0.095,0-0.163,0.016-0.205,0.041c-1.238,0.715-0.07,8.303,6.488,19.661c2.815,4.875,5.927,9.175,8.762,12.107
					c3.161,3.269,4.723,3.515,5.021,3.343l0,0c1.238-0.715,0.069-8.302-6.489-19.661c-2.815-4.875-5.927-9.175-8.762-12.107
					C119.642,134.346,118.108,133.766,117.538,133.766z"/>
			</g>
			<g>
				<path style="fill:#E8BB37;" d="M117.528,171.251c-0.489,0-0.936-0.116-1.34-0.35l0,0c-1.789-1.033-2.015-3.938-0.672-8.633
					c1.171-4.097,3.417-9.125,6.323-14.157c5.433-9.411,13.042-18.526,16.912-16.289c3.868,2.234-0.218,13.38-5.651,22.79
					c-2.906,5.033-6.137,9.492-9.099,12.554C121.372,169.884,119.203,171.251,117.528,171.251z M137.307,133.738
					c-1.713,0-7.349,4.89-13.486,15.52c-2.814,4.875-4.982,9.72-6.104,13.641c-1.25,4.373-0.683,5.848-0.385,6.02l0,0
					c0.299,0.172,1.858-0.073,5.02-3.343c2.835-2.932,5.947-7.232,8.762-12.107c6.558-11.358,7.727-18.946,6.489-19.661
					C137.524,133.761,137.425,133.738,137.307,133.738z"/>
			</g>
			<g>
				<circle style="fill:#BE2D86;" cx="127.468" cy="151.362" r="2.053"/>
			</g>
		</g>
		<g>
			<path style="fill:#9BCBEE;" d="M437.889,244.804c-4.029-2.021-8.603-2.351-12.879-0.928c-4.276,1.421-7.744,4.422-9.763,8.451
				c-2.02,4.028-2.349,8.603-0.928,12.879s4.422,7.743,8.451,9.762c2.382,1.194,4.954,1.798,7.543,1.798
				c1.79,0,3.588-0.289,5.336-0.87c4.276-1.421,7.744-4.422,9.763-8.451C449.58,259.129,446.205,248.972,437.889,244.804z
				 M443.826,265.37l-2.663-1.335c0.735-1.739,1.161-3.532,1.289-5.334l2.442,1.224C444.892,261.752,444.548,263.596,443.826,265.37
				z M434.374,269.174l-5.929-2.972l2.395-4.779l7.249,3.633C437.107,266.695,435.848,268.076,434.374,269.174z M415.756,259.843
				c0.004-1.853,0.362-3.693,1.075-5.441l2.665,1.336c-0.735,1.738-1.161,3.531-1.287,5.334L415.756,259.843z M421.544,256.764
				l7.249,3.633l-2.395,4.779l-5.933-2.974C420.465,260.366,420.819,258.531,421.544,256.764z M426.246,250.58l5.968,2.991
				l-2.396,4.78l-7.25-3.634C423.553,253.062,424.794,251.676,426.246,250.58z M437.241,248.65c1.41,1.987,2.326,4.097,2.735,6.25
				l-4.689-2.35L437.241,248.65z M433.24,251.524l-4.686-2.348c1.968-0.958,4.205-1.488,6.639-1.549L433.24,251.524z
				 M425.372,267.223l-1.951,3.893c-1.378-1.962-2.28-4.07-2.691-6.22L425.372,267.223z M427.419,268.249l4.636,2.324
				c-1.968,0.955-4.194,1.493-6.586,1.567L427.419,268.249z M431.866,259.376l2.395-4.78l5.971,2.992
				c-0.011,1.82-0.379,3.643-1.115,5.421L431.866,259.376z M444.646,257.24l-2.217-1.111c-0.204-2.338-0.905-4.653-2.097-6.845
				C442.605,251.432,444.087,254.237,444.646,257.24z M430.354,245.307c0.811,0,1.625,0.092,2.436,0.231
				c-2.447,0.361-4.704,1.181-6.687,2.409l-2.232-1.119C425.877,245.838,428.097,245.307,430.354,245.307z M421.575,248.239
				l2.452,1.229c-1.369,1.181-2.551,2.594-3.505,4.224l-2.673-1.34C418.838,250.711,420.114,249.333,421.575,248.239z
				 M416.493,264.484c-0.214-0.645-0.366-1.299-0.488-1.956l2.228,1.117c0.206,2.347,0.911,4.671,2.112,6.871
				C418.596,268.878,417.27,266.822,416.493,264.484z M427.81,274.241c2.473-0.356,4.753-1.177,6.75-2.413l2.217,1.111
				C434.032,274.289,430.894,274.78,427.81,274.241z M439.076,271.531l-2.444-1.225c1.37-1.181,2.556-2.592,3.508-4.222l2.661,1.333
				C441.811,269.057,440.539,270.436,439.076,271.531z"/>
		</g>
		<g>
			<g>
				<g>
					<path style="fill:#D7D8DC;" d="M401.352,383.246l4.625-0.491c0.354-0.038,0.655,0.255,0.628,0.609l-0.972,12.876
						c-0.048,0.631-0.935,0.725-1.114,0.118l-3.653-12.385C400.766,383.633,400.999,383.284,401.352,383.246z"/>
				</g>
			</g>
			<g>
				<g>
					<path style="fill:#332F2E;" d="M389.413,250.179c-1.025,0.109-1.947-0.631-2.062-1.657l-1.566-14.028
						c-0.115-1.029,0.627-1.957,1.656-2.072c0.004,0,0.006-0.001,0.01-0.001c1.025-0.109,1.947,0.631,2.062,1.657l1.566,14.028
						c0.115,1.029-0.627,1.957-1.656,2.072C389.419,250.178,389.416,250.179,389.413,250.179z"/>
				</g>
			</g>
			<g>
				<g>
					<path style="fill:#D7D8DC;" d="M403.736,383.409L403.736,383.409c-3.859,0.421-7.36-2.391-7.781-6.25l-14.582-134.016
						c-0.421-3.859,13.61-5.39,14.031-1.531l14.582,134.016C410.407,379.487,407.595,382.988,403.736,383.409z"/>
				</g>
			</g>
			<g>
				<g>
					<path style="fill:#ECEDEF;" d="M403.736,383.409L403.736,383.409l-15.664-143.925c3.508-0.383,7.121,0.199,7.331,2.128
						l14.582,134.016C410.407,379.487,407.595,382.988,403.736,383.409z"/>
				</g>
			</g>
			<g>
				<g>
					<path style="fill:#332F2E;" d="M387.187,296.453c-0.737,0.078-1.399-0.453-1.481-1.19c-0.083-0.739,0.45-1.406,1.189-1.488
						l14.027-1.566c0.003,0,0.005,0,0.007-0.001c0.737-0.078,1.399,0.453,1.481,1.19c0.083,0.739-0.45,1.406-1.189,1.488
						l-14.027,1.566C387.192,296.453,387.19,296.453,387.187,296.453z"/>
				</g>
			</g>
			<g>
				<g>
					<path style="fill:#332F2E;" d="M402.413,277.972c-0.736,0.078-1.398-0.452-1.481-1.188l-2.039-18.093
						c-0.083-0.74,0.448-1.407,1.187-1.49c0.004,0,0.006-0.001,0.009-0.001c0.736-0.078,1.398,0.452,1.481,1.188l2.039,18.093
						c0.083,0.74-0.448,1.407-1.187,1.49C402.418,277.971,402.416,277.972,402.413,277.972z"/>
				</g>
			</g>
			<g>
				<g>
					<path style="fill:#332F2E;" d="M396.413,250.896c-0.735,0.078-1.397-0.451-1.48-1.187c-0.084-0.739,0.447-1.406,1.186-1.49
						l5.471-0.624c0.003,0,0.006-0.001,0.01-0.001c0.735-0.078,1.397,0.451,1.48,1.187c0.084,0.739-0.447,1.406-1.186,1.49
						l-5.471,0.624C396.42,250.895,396.417,250.895,396.413,250.896z"/>
				</g>
			</g>
			<g>
				<g>
					<path style="fill:#332F2E;" d="M382.451,253.081c-1.107,0.117-2.101-0.683-2.222-1.79c-0.12-1.11,0.681-2.107,1.789-2.228
						l14.031-1.532c0.003,0,0.005,0,0.006-0.001c1.107-0.117,2.101,0.683,2.222,1.79c0.12,1.11-0.681,2.107-1.789,2.228
						l-14.031,1.532C382.454,253.08,382.453,253.081,382.451,253.081z"/>
				</g>
			</g>
			<g>
				<g>
					<path style="fill:#332F2E;" d="M400.373,259.879c-0.274,0.029-0.559-0.025-0.815-0.173c-0.644-0.372-0.865-1.195-0.493-1.84
						l2.137-3.7c0.373-0.645,1.197-0.866,1.84-0.493c0.644,0.372,0.865,1.195,0.493,1.84l-2.137,3.7
						C401.174,259.6,400.787,259.835,400.373,259.879z"/>
				</g>
			</g>
			<g>
				<g>
					<path style="fill:#332F2E;" d="M402.511,256.179c-0.739,0.078-1.403-0.458-1.482-1.197l-0.627-5.907
						c-0.078-0.739,0.458-1.403,1.197-1.482s1.403,0.458,1.482,1.197l0.627,5.907C403.787,255.436,403.25,256.1,402.511,256.179z"/>
				</g>
			</g>
			<g>
				<g>
					<path style="fill:#9BCBEE;" d="M408.135,371.307l-11.295,1.199c-0.864,0.092-1.279,0.913-1.187,1.776
						c1.872,17.641,7.559,17.418,7.559,17.418l2.721-0.289c0,0,5.607-0.975,3.736-18.616
						C409.577,371.931,408.998,371.215,408.135,371.307z"/>
				</g>
			</g>
			<g>
				<g>
					<path style="fill:#332F2E;" d="M395.378,373.642c-0.513,0.054-0.974-0.316-1.031-0.828c-0.057-0.515,0.313-0.979,0.827-1.036
						l14.027-1.566c0.002,0,0.004,0,0.005-0.001c0.513-0.054,0.974,0.316,1.031,0.828c0.057,0.515-0.313,0.979-0.827,1.036
						l-14.027,1.566C395.381,373.642,395.38,373.642,395.378,373.642z"/>
				</g>
			</g>
			<g>
				<g>
					<path style="fill:#332F2E;" d="M405.121,396.738c-0.121,0.013-0.247-0.021-0.34-0.097c-0.102-0.074-0.162-0.19-0.176-0.32
						c-0.013-0.121,0.022-0.247,0.106-0.342c0.15-0.185,0.457-0.227,0.653-0.069c0.051,0.042,0.094,0.085,0.118,0.139
						c0.034,0.053,0.05,0.117,0.056,0.174c0.014,0.13-0.021,0.247-0.104,0.35c-0.033,0.041-0.086,0.085-0.138,0.119
						C405.242,396.716,405.187,396.731,405.121,396.738z"/>
				</g>
			</g>
		</g>
		<g>
			<g>
				<polygon style="fill:#BB9D6C;" points="379.627,393.866 355.111,388.027 355.081,399.642 				"/>
			</g>
			<g>
				<polygon style="fill:#211915;" points="379.627,393.866 373.356,392.373 373.353,395.343 				"/>
			</g>
			<g>
				<path style="fill:#70A63B;" d="M354.864,399.642c1.069,0.003,1.938-0.862,1.941-1.931c0.003-1.069-0.862-1.938-1.931-1.941
					c1.069,0.003,1.938-0.862,1.941-1.931c0.003-1.069-0.862-1.938-1.931-1.941c1.069,0.003,1.938-0.862,1.941-1.931
					c0.003-1.069-0.862-1.938-1.931-1.941l-159.742-0.113l0-0.022l-5.136-0.013c-1.951-0.005-3.537,1.573-3.542,3.524l-0.012,4.548
					c-0.005,1.951,1.573,3.537,3.524,3.542l1.898,0.005l0,0.023L354.864,399.642z"/>
			</g>
			<g>
				<path style="fill:#A1BC31;" d="M354.864,399.642c1.069,0.003,1.938-0.862,1.941-1.931c0.003-1.069-0.862-1.938-1.931-1.941
					c1.005,0.003-152.606-0.414-168.41-0.395l-0.002,0.576c-0.005,1.951,1.573,3.537,3.524,3.542l1.898,0.005l0,0.023
					L354.864,399.642z"/>
			</g>
			<g>
				<path style="fill:#332F2E;" d="M220.235,387.943l-25.084,0.042l-5.136-0.013c-1.951-0.005-3.537,1.573-3.542,3.524l-0.012,4.548
					c-0.005,1.951,1.573,3.537,3.524,3.542l1.898,0.005l28.381-0.049L220.235,387.943z"/>
			</g>
			<g>
				<polygon style="fill:#ECEDEF;" points="220.235,387.93 217.1,387.915 217.13,399.538 220.265,399.553 				"/>
			</g>
			<g>
				<polygon style="fill:#332F2E;" points="240.016,394.607 240.035,393.027 228.412,393.057 228.393,394.637 				"/>
			</g>
			<g>
				<polygon style="fill:#ECEDEF;" points="212.813,394.677 212.82,393.097 207.009,393.112 207.001,394.692 				"/>
			</g>
		</g>
		<g>
			<g>
				<g style="opacity:0.4;">
					<g>
						<g>
							<circle style="fill:#9BCBEE;" cx="305.611" cy="122.372" r="26.628"/>
						</g>
					</g>
				</g>
				<g>
					<g>
						<g>
							<path style="fill:#211915;" d="M291.011,148.015c-6.57-3.741-11.715-9.982-13.868-17.831
								c-4.308-15.698,4.958-31.972,20.656-36.28c15.698-4.308,31.972,4.958,36.28,20.656c4.308,15.698-4.958,31.972-20.656,36.28
								C305.574,152.994,297.581,151.756,291.011,148.015z M317.349,101.756c-5.282-3.008-11.708-4.004-18.019-2.273
								c-12.622,3.464-20.072,16.549-16.609,29.171c3.465,12.621,16.549,20.07,29.171,16.609
								c12.622-3.464,20.072-16.549,16.609-29.171C326.768,109.781,322.632,104.763,317.349,101.756z"/>
						</g>
					</g>
				</g>
				<g>
					<g>
						<g>
							<path style="fill:#F7F7F8;" d="M289.591,111.741c-0.037-0.021-0.074-0.044-0.11-0.069c-0.657-0.457-0.819-1.357-0.364-2.013
								c1.206-1.736,2.606-3.335,4.161-4.754c0.591-0.538,1.505-0.494,2.043,0.094c0.538,0.591,0.497,1.505-0.094,2.043
								c-1.396,1.273-2.652,2.709-3.734,4.266C291.062,111.929,290.234,112.108,289.591,111.741z"/>
						</g>
					</g>
				</g>
				<g>
					<g>
						<g>
							<path style="fill:#F7F7F8;" d="M286.256,118.328c-0.592-0.337-0.88-1.057-0.651-1.725c0.388-1.135,0.853-2.254,1.383-3.328
								c0.353-0.717,1.221-1.011,1.936-0.658c0.689,0.357,1.012,1.22,0.658,1.936c-0.475,0.963-0.891,1.968-1.24,2.986
								c-0.258,0.755-1.08,1.158-1.837,0.9C286.418,118.41,286.334,118.372,286.256,118.328z"/>
						</g>
					</g>
				</g>
				<g>
					<g>
						<g>
							<path style="fill:#211915;" d="M322.759,195.923c-0.965-0.549-1.72-1.467-2.037-2.622l-11.866-42.706
								c-0.635-2.31,0.725-4.699,3.036-5.332c2.311-0.634,4.697,0.724,5.332,3.036l11.866,42.706
								c0.635,2.31-0.725,4.699-3.036,5.332C324.898,196.653,323.724,196.472,322.759,195.923z"/>
						</g>
					</g>
				</g>
			</g>
			<g>
				<g>
					<path style="fill:#E8BB37;" d="M308.932,156.663c-0.482-0.275-0.86-0.733-1.018-1.311c-0.317-1.156,0.362-2.349,1.518-2.666
						l8.367-2.296c1.156-0.317,2.349,0.362,2.666,1.518c0.317,1.156-0.362,2.349-1.518,2.666l-8.367,2.296
						C310.001,157.029,309.414,156.938,308.932,156.663z"/>
				</g>
			</g>
		</g>
		<g>
			<path style="fill:#E8BB37;" d="M254.163,89.093c-0.828,0-1.5-0.671-1.5-1.5V75.578c0-0.829,0.672-1.5,1.5-1.5s1.5,0.671,1.5,1.5
				v12.016C255.663,88.422,254.992,89.093,254.163,89.093z"/>
		</g>
		<g>
			<path style="fill:#E8BB37;" d="M229.239,93.725c-0.384,0-0.768-0.146-1.061-0.439l-8.497-8.497c-0.586-0.585-0.586-1.535,0-2.121
				s1.535-0.586,2.121,0l8.497,8.497c0.586,0.585,0.586,1.535,0,2.121C230.006,93.578,229.622,93.725,229.239,93.725z"/>
		</g>
		<g>
			<path style="fill:#E8BB37;" d="M279.088,93.725c-0.384,0-0.768-0.146-1.061-0.439c-0.586-0.585-0.586-1.535,0-2.121l8.496-8.497
				c0.586-0.586,1.535-0.586,2.121,0c0.586,0.585,0.586,1.535,0,2.121l-8.496,8.497C279.856,93.578,279.472,93.725,279.088,93.725z"
				/>
		</g>
	</g>
</g>
<g id="DESIGNED_BY_FREEPIK">
	<g id="XMLID_1_">
		<g id="XMLID_17_">
			<g id="XMLID_25_">
				<path id="XMLID_33_" style="fill:#211915;" d="M260.104,467.949c-0.432,0.443-0.803,0.931-1.108,1.453l-0.465-0.241
					c-0.067-0.298-0.349-0.503-0.659-0.466c-0.331,0.039-0.568,0.339-0.529,0.67c0.039,0.331,0.339,0.568,0.67,0.529
					c0.066-0.008,0.127-0.026,0.184-0.052l0.451,0.234c-0.251,0.554-0.433,1.139-0.539,1.744l0.747,0.132
					c0.23-1.306,0.85-2.507,1.792-3.473L260.104,467.949z"/>
				<path id="XMLID_32_" style="fill:#211915;" d="M265.592,465.647c-0.171,0-0.341,0.006-0.51,0.017l-0.074-0.626
					c0.188-0.149,0.296-0.389,0.266-0.645c-0.046-0.393-0.402-0.674-0.795-0.628c-0.393,0.046-0.674,0.402-0.628,0.795
					c0.03,0.254,0.189,0.461,0.404,0.564l0.074,0.624c-0.714,0.116-1.403,0.332-2.06,0.646l0.327,0.684
					c0.934-0.447,1.942-0.673,2.995-0.673c0.496,0,0.993,0.053,1.475,0.158l0.161-0.741
					C266.692,465.706,266.142,465.647,265.592,465.647z"/>
				<path id="XMLID_31_" style="fill:#211915;" d="M272.194,468.194c0.331-0.04,0.566-0.342,0.526-0.672
					c-0.04-0.331-0.341-0.566-0.672-0.526c-0.309,0.038-0.535,0.304-0.53,0.609l-0.416,0.363c-0.418-0.43-0.889-0.813-1.408-1.139
					l-0.404,0.641c1.134,0.715,2.021,1.726,2.563,2.925l0.69-0.313c-0.251-0.554-0.567-1.072-0.942-1.545l0.402-0.351
					C272.065,468.199,272.129,468.202,272.194,468.194z"/>
				<path id="XMLID_30_" style="fill:#211915;" d="M265.044,475.855c-0.386,0.023-0.775,0.035-1.157,0.035
					c-0.88,0-1.733-0.061-2.478-0.179c-0.39-0.062-0.846-0.155-1.27-0.292c1.046,1.861,3.069,3.125,5.388,3.125
					c2.855,0,5.262-1.916,5.95-4.504c-0.682,0.449-1.505,0.825-2.459,1.123C267.839,475.53,266.463,475.77,265.044,475.855z"/>
				<path id="XMLID_26_" style="fill:#211915;" d="M265.592,467.163c-3.352,0-6.08,2.666-6.08,5.943
					c0,0.426,0.046,0.849,0.137,1.261c0.673,0.483,2.706,0.89,5.348,0.731c2.879-0.173,5.297-0.957,6.672-2.159
					c-0.006-0.195-0.021-0.39-0.045-0.582C271.244,469.396,268.65,467.163,265.592,467.163z M263.432,473.678
					c-1.02,0-1.85-0.83-1.85-1.85c0-1.02,0.83-1.85,1.85-1.85c1.02,0,1.85,0.83,1.85,1.85
					C265.282,472.848,264.452,473.678,263.432,473.678z M268.17,472.769c-0.75,0-1.36-0.61-1.36-1.36c0-0.75,0.61-1.361,1.36-1.361
					c0.75,0,1.361,0.61,1.361,1.361C269.53,472.159,268.92,472.769,268.17,472.769z"/>
			</g>
			<path id="XMLID_23_" style="fill:#211915;" d="M281.595,469.03c-0.295-0.116-0.805-0.309-1.382-0.237
				c-0.551,0.069-0.844,0.341-0.844,1.007v0.866h2.228v1.717h-2.228v5.455h-1.932v-5.455h-1.34v-1.717h1.34v-0.888
				c0-1.68,0.896-2.783,2.568-2.783c0.643,0,1.157,0.122,1.59,0.308L281.595,469.03z"/>
			<path id="XMLID_21_" style="fill:#211915;" d="M286.298,472.362c-0.177-0.03-0.358-0.046-0.526-0.046
				c-0.896,0-1.51,0.548-1.51,1.613v3.908h-1.932v-7.172h1.873v0.785c0.451-0.673,1.14-0.977,2.021-0.977
				c0.414,0,0.848,0.128,1.094,0.337L286.298,472.362z"/>
			<path id="XMLID_18_" style="fill:#211915;" d="M293.965,474.24c0,0.222-0.015,0.489-0.037,0.651h-5.085
				c0.207,1.036,0.933,1.488,1.843,1.488c0.622,0,1.295-0.252,1.813-0.688l1.133,1.243c-0.814,0.748-1.85,1.088-3.057,1.088
				c-2.198,0-3.723-1.495-3.723-3.753c0-2.258,1.48-3.797,3.627-3.797C292.544,470.473,293.958,472.005,293.965,474.24z
				 M288.851,473.574h3.175c-0.177-0.918-0.733-1.436-1.562-1.436C289.554,472.138,289.021,472.686,288.851,473.574z"/>
			<path id="XMLID_34_" style="fill:#211915;" d="M301.618,474.24c0,0.222-0.015,0.489-0.037,0.651h-5.085
				c0.207,1.036,0.933,1.488,1.843,1.488c0.622,0,1.295-0.252,1.814-0.688l1.132,1.243c-0.814,0.748-1.85,1.088-3.057,1.088
				c-2.198,0-3.723-1.495-3.723-3.753c0-2.258,1.48-3.797,3.627-3.797C300.197,470.473,301.611,472.005,301.618,474.24z
				 M296.504,473.574h3.175c-0.178-0.918-0.733-1.436-1.562-1.436C297.207,472.138,296.674,472.686,296.504,473.574z"/>
			<path id="XMLID_58_" style="fill:#211915;" d="M309.964,474.248c0,2.154-1.495,3.775-3.471,3.775
				c-0.962,0-1.643-0.378-2.109-0.933v3.708h-1.924v-10.133h1.887v0.792c0.466-0.585,1.155-0.984,2.139-0.984
				C308.469,470.473,309.964,472.094,309.964,474.248z M304.287,474.248c0,1.132,0.748,1.976,1.843,1.976
				c1.14,0,1.85-0.881,1.85-1.976c0-1.095-0.71-1.976-1.85-1.976C305.035,472.271,304.287,473.115,304.287,474.248z"/>
			<path id="XMLID_61_" style="fill:#211915;" d="M313.068,468.319c0,0.696-0.54,1.229-1.236,1.229
				c-0.696,0-1.229-0.533-1.229-1.229c0-0.696,0.533-1.243,1.229-1.243C312.527,467.076,313.068,467.623,313.068,468.319z
				 M312.809,477.837h-1.932v-7.172h1.932V477.837z"/>
			<path id="XMLID_64_" style="fill:#211915;" d="M316.032,473.219l2.701-2.554h2.368l-3.479,3.375l3.501,3.797h-2.376l-2.716-2.901
				v2.901H314.1v-10.658h1.932V473.219z"/>
		</g>
		<g id="XMLID_66_">
			<path id="XMLID_67_" style="fill:#211915;" d="M184.412,477.772v-1.055c-0.527,0.718-1.391,1.23-2.387,1.23
				c-1.846,0-3.149-1.406-3.149-3.706c0-2.256,1.289-3.721,3.149-3.721c0.952,0,1.816,0.469,2.387,1.245v-3.765h1.099v9.77H184.412z
				 M184.412,475.853v-3.208c-0.395-0.615-1.245-1.143-2.124-1.143c-1.421,0-2.27,1.172-2.27,2.739c0,1.567,0.85,2.724,2.27,2.724
				C183.168,476.967,184.017,476.469,184.412,475.853z"/>
			<path id="XMLID_70_" style="fill:#211915;" d="M186.932,474.228c0-2.051,1.465-3.706,3.486-3.706c2.139,0,3.398,1.67,3.398,3.794
				v0.279h-5.727c0.088,1.333,1.025,2.446,2.549,2.446c0.805,0,1.626-0.322,2.182-0.893l0.527,0.718
				c-0.703,0.703-1.655,1.084-2.812,1.084C188.44,477.948,186.932,476.439,186.932,474.228z M190.403,471.43
				c-1.509,0-2.256,1.274-2.314,2.358h4.643C192.718,472.733,192.015,471.43,190.403,471.43z"/>
			<path id="XMLID_73_" style="fill:#211915;" d="M194.607,476.835l0.571-0.791c0.469,0.542,1.362,1.011,2.329,1.011
				c1.084,0,1.67-0.513,1.67-1.216c0-1.714-4.38-0.659-4.38-3.281c0-1.098,0.952-2.036,2.636-2.036c1.201,0,2.051,0.454,2.622,1.025
				l-0.513,0.762c-0.424-0.513-1.201-0.894-2.109-0.894c-0.967,0-1.567,0.483-1.567,1.113c0,1.552,4.38,0.527,4.38,3.281
				c0,1.187-0.952,2.138-2.783,2.138C196.306,477.948,195.325,477.596,194.607,476.835z"/>
			<path id="XMLID_75_" style="fill:#211915;" d="M201.477,468.954c0-0.41,0.337-0.747,0.732-0.747c0.41,0,0.747,0.337,0.747,0.747
				c0,0.41-0.337,0.732-0.747,0.732C201.814,469.686,201.477,469.365,201.477,468.954z M201.667,477.772v-7.075h1.099v7.075H201.667
				z"/>
			<path id="XMLID_78_" style="fill:#211915;" d="M204.582,479.589l0.556-0.82c0.586,0.703,1.289,0.967,2.3,0.967
				c1.172,0,2.27-0.571,2.27-2.124V476.6c-0.513,0.718-1.377,1.26-2.373,1.26c-1.845,0-3.149-1.377-3.149-3.662
				c0-2.27,1.289-3.676,3.149-3.676c0.952,0,1.802,0.469,2.373,1.245v-1.069h1.098v6.87c0,2.344-1.641,3.076-3.369,3.076
				C206.237,480.643,205.417,480.409,204.582,479.589z M209.709,475.736v-3.091c-0.381-0.615-1.23-1.143-2.109-1.143
				c-1.421,0-2.27,1.128-2.27,2.695c0,1.553,0.849,2.695,2.27,2.695C208.478,476.893,209.328,476.352,209.709,475.736z"/>
			<path id="XMLID_81_" style="fill:#211915;" d="M217.413,477.772v-4.629c0-1.245-0.63-1.641-1.582-1.641
				c-0.865,0-1.685,0.527-2.095,1.099v5.17h-1.099v-7.075h1.099v1.025c0.498-0.586,1.464-1.201,2.519-1.201
				c1.48,0,2.256,0.747,2.256,2.285v4.966H217.413z"/>
			<path id="XMLID_83_" style="fill:#211915;" d="M219.932,474.228c0-2.051,1.465-3.706,3.486-3.706c2.139,0,3.398,1.67,3.398,3.794
				v0.279h-5.727c0.088,1.333,1.025,2.446,2.549,2.446c0.806,0,1.626-0.322,2.183-0.893l0.527,0.718
				c-0.703,0.703-1.655,1.084-2.812,1.084C221.441,477.948,219.932,476.439,219.932,474.228z M223.404,471.43
				c-1.509,0-2.256,1.274-2.314,2.358h4.643C225.718,472.733,225.015,471.43,223.404,471.43z"/>
			<path id="XMLID_178_" style="fill:#211915;" d="M233.35,477.772v-1.055c-0.527,0.718-1.392,1.23-2.388,1.23
				c-1.846,0-3.149-1.406-3.149-3.706c0-2.256,1.289-3.721,3.149-3.721c0.952,0,1.817,0.469,2.388,1.245v-3.765h1.098v9.77H233.35z
				 M233.35,475.853v-3.208c-0.396-0.615-1.245-1.143-2.124-1.143c-1.421,0-2.27,1.172-2.27,2.739c0,1.567,0.849,2.724,2.27,2.724
				C232.105,476.967,232.954,476.469,233.35,475.853z"/>
			<path id="XMLID_185_" style="fill:#211915;" d="M239.692,477.772v-9.77h1.098v3.765c0.572-0.776,1.421-1.245,2.388-1.245
				c1.845,0,3.149,1.465,3.149,3.721c0,2.299-1.304,3.706-3.149,3.706c-0.996,0-1.86-0.513-2.388-1.23v1.055H239.692z
				 M242.9,476.967c1.436,0,2.285-1.157,2.285-2.724c0-1.568-0.85-2.739-2.285-2.739c-0.864,0-1.728,0.527-2.109,1.143v3.208
				C241.171,476.469,242.036,476.967,242.9,476.967z"/>
			<path id="XMLID_195_" style="fill:#211915;" d="M247.528,479.545c0.161,0.073,0.425,0.117,0.601,0.117
				c0.483,0,0.805-0.161,1.055-0.747l0.469-1.069l-2.959-7.148h1.187l2.358,5.801l2.344-5.801h1.201l-3.545,8.51
				c-0.425,1.025-1.143,1.421-2.08,1.435c-0.234,0-0.601-0.044-0.805-0.103L247.528,479.545z"/>
		</g>
	</g>
</g>
</svg>
